<svg viewBox="0 0 260 167" xmlns="http://www.w3.org/2000/svg">
 <g>
  <rect fill="#fff" id="canvas_background" height="169" width="262" y="-1" x="-1"/>
  <g display="none" overflow="visible" y="0" x="0" height="100%" width="100%" id="canvasGrid">
   <rect fill="url(#gridpattern)" stroke-width="0" y="0" x="0" height="100%" width="100%"/>
  </g>
 </g>
 <g>
  <path stroke="null" id="svg_2" d="m170.619659,52.508704l-18.053184,0l0,-7.221274l-45.13296,0l0,7.221274l-18.053184,0c-5.314857,0 -9.628365,4.313507 -9.628365,9.628365l0,49.947143c0,5.314857 4.313507,9.628365 9.628365,9.628365l81.239328,0c5.314857,0 9.628365,-4.313507 9.628365,-9.628365l0,-49.947143c0,-5.314857 -4.313507,-9.628365 -9.628365,-9.628365zm-40.622071,63.783103c-16.088998,0 -29.173945,-13.089762 -29.173945,-29.17876c0,-16.088998 13.084948,-29.183574 29.173945,-29.183574s29.183574,13.094576 29.183574,29.183574c0,16.088998 -13.09939,29.17876 -29.183574,29.17876zm0,-48.738783c-10.803025,0 -19.555209,8.756998 -19.555209,19.555209c0,10.803025 8.756998,19.555209 19.555209,19.555209c10.803025,0 19.555209,-8.752184 19.555209,-19.555209c0.004814,-10.798211 -8.747369,-19.555209 -19.555209,-19.555209z" stroke-width="1.5" fill="#cccccc"/>
 </g>
</svg>