<?xml version="1.0" encoding="UTF-8" standalone="no"?><!-- Generator: Gravit.io --><svg xmlns="http://www.w3.org/2000/svg" xmlns:xlink="http://www.w3.org/1999/xlink" style="isolation:isolate" viewBox="0 0 280 55" width="280pt" height="55pt"><defs><clipPath id="_clipPath_Rjch21iXvnN6NfVd9u6hcIQTKLJZZBKN"><rect width="280" height="55"/></clipPath></defs><g clip-path="url(#_clipPath_Rjch21iXvnN6NfVd9u6hcIQTKLJZZBKN)"><path d=" M 51.932 26.15 L 51.932 27.867 L 51.932 27.867 Q 51.932 29.161 51.622 30.18 L 51.622 30.18 L 51.622 30.18 Q 51.313 31.198 50.786 31.977 L 50.786 31.977 L 50.786 31.977 Q 50.259 32.755 49.571 33.308 L 49.571 33.308 L 49.571 33.308 Q 48.882 33.861 48.13 34.21 L 48.13 34.21 L 48.13 34.21 Q 47.379 34.559 46.613 34.719 L 46.613 34.719 L 46.613 34.719 Q 45.847 34.879 45.172 34.879 L 45.172 34.879 L 36.91 34.879 L 36.91 31.096 L 45.172 31.096 L 45.172 31.096 Q 45.875 31.038 46.444 30.798 L 46.444 30.798 L 46.444 30.798 Q 47.013 30.558 47.421 30.151 L 47.421 30.151 L 47.421 30.151 Q 47.828 29.743 48.053 29.169 L 48.053 29.169 L 48.053 29.169 Q 48.278 28.594 48.278 27.867 L 48.278 27.867 L 48.278 26.15 L 48.278 26.15 Q 48.208 25.437 47.983 24.841 L 47.983 24.841 L 47.983 24.841 Q 47.758 24.244 47.372 23.822 L 47.372 23.822 L 47.372 23.822 Q 46.985 23.4 46.437 23.16 L 46.437 23.16 L 46.437 23.16 Q 45.889 22.92 45.172 22.92 L 45.172 22.92 L 36.938 22.92 L 36.938 22.92 Q 36.207 22.92 35.827 23.313 L 35.827 23.313 L 35.827 23.313 Q 35.448 23.706 35.448 24.448 L 35.448 24.448 L 35.448 40 L 31.794 40 L 31.794 24.448 L 31.794 24.448 Q 31.794 22.993 32.307 21.975 L 32.307 21.975 L 32.307 21.975 Q 32.82 20.956 33.586 20.331 L 33.586 20.331 L 33.586 20.331 Q 34.352 19.705 35.251 19.421 L 35.251 19.421 L 35.251 19.421 Q 36.151 19.138 36.91 19.138 L 36.91 19.138 L 45.172 19.138 L 45.172 19.138 Q 46.409 19.138 47.393 19.465 L 47.393 19.465 L 47.393 19.465 Q 48.376 19.792 49.128 20.338 L 49.128 20.338 L 49.128 20.338 Q 49.88 20.884 50.407 21.596 L 50.407 21.596 L 50.407 21.596 Q 50.934 22.309 51.278 23.088 L 51.278 23.088 L 51.278 23.088 Q 51.622 23.866 51.777 24.659 L 51.777 24.659 L 51.777 24.659 Q 51.932 25.452 51.932 26.15 L 51.932 26.15 Z  M 58.354 17.625 L 58.354 21.044 L 54.7 21.044 L 54.7 17.625 L 58.354 17.625 Z  M 58.354 24.273 L 58.354 40 L 54.7 40 L 54.7 24.273 L 58.354 24.273 Z  M 76.565 36.217 L 76.565 40 L 66.659 40 L 66.659 40 Q 65.9 40 65 39.724 L 65 39.724 L 65 39.724 Q 64.101 39.447 63.335 38.814 L 63.335 38.814 L 63.335 38.814 Q 62.569 38.181 62.056 37.17 L 62.056 37.17 L 62.056 37.17 Q 61.543 36.159 61.543 34.69 L 61.543 34.69 L 61.543 29.569 L 61.543 29.569 Q 61.543 29.031 61.663 28.434 L 61.663 28.434 L 61.663 28.434 Q 61.782 27.838 62.035 27.248 L 62.035 27.248 L 62.035 27.248 Q 62.288 26.659 62.689 26.121 L 62.689 26.121 L 62.689 26.121 Q 63.089 25.583 63.658 25.175 L 63.658 25.175 L 63.658 25.175 Q 64.227 24.768 64.972 24.521 L 64.972 24.521 L 64.972 24.521 Q 65.717 24.273 66.659 24.273 L 66.659 24.273 L 76.565 24.273 L 76.565 28.056 L 66.659 28.056 L 66.659 28.056 Q 65.942 28.056 65.569 28.434 L 65.569 28.434 L 65.569 28.434 Q 65.197 28.812 65.197 29.598 L 65.197 29.598 L 65.197 34.69 L 65.197 34.69 Q 65.197 35.432 65.576 35.825 L 65.576 35.825 L 65.576 35.825 Q 65.956 36.217 66.687 36.217 L 66.687 36.217 L 76.565 36.217 Z  M 96 29.569 L 96 34.69 L 96 34.69 Q 96 35.665 95.761 36.443 L 95.761 36.443 L 95.761 36.443 Q 95.522 37.221 95.129 37.81 L 95.129 37.81 L 95.129 37.81 Q 94.735 38.4 94.215 38.814 L 94.215 38.814 L 94.215 38.814 Q 93.695 39.229 93.126 39.491 L 93.126 39.491 L 93.126 39.491 Q 92.557 39.753 91.974 39.876 L 91.974 39.876 L 91.974 39.876 Q 91.391 40 90.871 40 L 90.871 40 L 84.28 40 L 84.28 40 Q 83.521 40 82.622 39.724 L 82.622 39.724 L 82.622 39.724 Q 81.723 39.447 80.957 38.814 L 80.957 38.814 L 80.957 38.814 Q 80.191 38.181 79.678 37.17 L 79.678 37.17 L 79.678 37.17 Q 79.165 36.159 79.165 34.69 L 79.165 34.69 L 79.165 29.569 L 79.165 29.569 Q 79.165 28.114 79.678 27.103 L 79.678 27.103 L 79.678 27.103 Q 80.191 26.092 80.957 25.459 L 80.957 25.459 L 80.957 25.459 Q 81.723 24.826 82.622 24.55 L 82.622 24.55 L 82.622 24.55 Q 83.521 24.273 84.28 24.273 L 84.28 24.273 L 90.871 24.273 L 90.871 24.273 Q 92.276 24.273 93.26 24.797 L 93.26 24.797 L 93.26 24.797 Q 94.243 25.321 94.848 26.114 L 94.848 26.114 L 94.848 26.114 Q 95.452 26.907 95.726 27.838 L 95.726 27.838 L 95.726 27.838 Q 96 28.769 96 29.569 L 96 29.569 Z  M 92.346 34.69 L 92.346 29.598 L 92.346 29.598 Q 92.346 28.812 91.967 28.434 L 91.967 28.434 L 91.967 28.434 Q 91.588 28.056 90.871 28.056 L 90.871 28.056 L 84.308 28.056 L 84.308 28.056 Q 83.578 28.056 83.198 28.441 L 83.198 28.441 L 83.198 28.441 Q 82.819 28.827 82.819 29.569 L 82.819 29.569 L 82.819 34.69 L 82.819 34.69 Q 82.819 35.432 83.198 35.825 L 83.198 35.825 L 83.198 35.825 Q 83.578 36.217 84.308 36.217 L 84.308 36.217 L 90.871 36.217 L 90.871 36.217 Q 91.616 36.217 91.981 35.825 L 91.981 35.825 L 91.981 35.825 Q 92.346 35.432 92.346 34.69 L 92.346 34.69 Z " fill="rgb(0,95,183)"/><path d=" M 125.062 26.75 L 125.062 30.844 L 112.656 30.844 L 112.656 26.75 L 125.062 26.75 Z  M 126.813 17.594 L 126.813 21.657 L 111.087 21.657 L 111.087 40 L 107.163 40 L 107.163 19.641 L 107.163 19.641 Q 107.163 19.219 107.314 18.844 L 107.314 18.844 L 107.314 18.844 Q 107.464 18.469 107.729 18.188 L 107.729 18.188 L 107.729 18.188 Q 107.993 17.907 108.355 17.75 L 108.355 17.75 L 108.355 17.75 Q 108.717 17.594 109.14 17.594 L 109.14 17.594 L 126.813 17.594 Z  M 133.529 15.969 L 133.529 19.641 L 129.605 19.641 L 129.605 15.969 L 133.529 15.969 Z  M 133.529 23.11 L 133.529 40 L 129.605 40 L 129.605 23.11 L 133.529 23.11 Z  M 155.367 30.625 L 155.367 40 L 151.443 40 L 151.443 30.625 L 151.443 30.625 Q 151.443 29.828 151.179 29.196 L 151.179 29.196 L 151.179 29.196 Q 150.915 28.563 150.462 28.11 L 150.462 28.11 L 150.462 28.11 Q 150.009 27.657 149.398 27.414 L 149.398 27.414 L 149.398 27.414 Q 148.787 27.172 148.077 27.172 L 148.077 27.172 L 141.21 27.172 L 141.21 40 L 137.286 40 L 137.286 25.125 L 137.286 25.125 Q 137.286 24.703 137.437 24.336 L 137.437 24.336 L 137.437 24.336 Q 137.588 23.969 137.86 23.696 L 137.86 23.696 L 137.86 23.696 Q 138.132 23.422 138.494 23.266 L 138.494 23.266 L 138.494 23.266 Q 138.856 23.11 139.264 23.11 L 139.264 23.11 L 148.108 23.11 L 148.108 23.11 Q 148.847 23.11 149.67 23.282 L 149.67 23.282 L 149.67 23.282 Q 150.492 23.453 151.299 23.836 L 151.299 23.836 L 151.299 23.836 Q 152.107 24.219 152.839 24.805 L 152.839 24.805 L 152.839 24.805 Q 153.571 25.391 154.137 26.227 L 154.137 26.227 L 154.137 26.227 Q 154.703 27.063 155.035 28.156 L 155.035 28.156 L 155.035 28.156 Q 155.367 29.25 155.367 30.625 L 155.367 30.625 Z  M 175.651 28.703 L 175.651 34.406 L 175.651 34.406 Q 175.651 35.25 175.364 36.227 L 175.364 36.227 L 175.364 36.227 Q 175.077 37.203 174.436 38.039 L 174.436 38.039 L 174.436 38.039 Q 173.794 38.875 172.76 39.438 L 172.76 39.438 L 172.76 39.438 Q 171.727 40 170.248 40 L 170.248 40 L 163.169 40 L 163.169 40 Q 162.354 40 161.411 39.703 L 161.411 39.703 L 161.411 39.703 Q 160.468 39.406 159.661 38.742 L 159.661 38.742 L 159.661 38.742 Q 158.853 38.078 158.31 37.008 L 158.31 37.008 L 158.31 37.008 Q 157.766 35.938 157.766 34.406 L 157.766 34.406 L 157.766 34.406 Q 157.766 33.563 158.053 32.578 L 158.053 32.578 L 158.053 32.578 Q 158.34 31.594 158.981 30.758 L 158.981 30.758 L 158.981 30.758 Q 159.623 29.922 160.657 29.36 L 160.657 29.36 L 160.657 29.36 Q 161.69 28.797 163.169 28.797 L 163.169 28.797 L 170.248 28.797 L 170.248 32.672 L 163.169 32.672 L 163.169 32.672 Q 162.37 32.672 161.932 33.18 L 161.932 33.18 L 161.932 33.18 Q 161.494 33.688 161.494 34.438 L 161.494 34.438 L 161.494 34.438 Q 161.494 35.234 162 35.68 L 162 35.68 L 162 35.68 Q 162.505 36.125 163.2 36.125 L 163.2 36.125 L 170.248 36.125 L 170.248 36.125 Q 171.048 36.125 171.485 35.625 L 171.485 35.625 L 171.485 35.625 Q 171.923 35.125 171.923 34.375 L 171.923 34.375 L 171.923 28.703 L 171.923 28.703 Q 171.923 27.906 171.447 27.438 L 171.447 27.438 L 171.447 27.438 Q 170.972 26.969 170.248 26.969 L 170.248 26.969 L 161.63 26.969 L 161.63 23.11 L 170.248 23.11 L 170.248 23.11 Q 171.063 23.11 172.006 23.407 L 172.006 23.407 L 172.006 23.407 Q 172.949 23.703 173.757 24.368 L 173.757 24.368 L 173.757 24.368 Q 174.564 25.032 175.107 26.102 L 175.107 26.102 L 175.107 26.102 Q 175.651 27.172 175.651 28.703 L 175.651 28.703 Z  M 197.081 30.625 L 197.081 40 L 193.157 40 L 193.157 30.625 L 193.157 30.625 Q 193.157 29.828 192.893 29.196 L 192.893 29.196 L 192.893 29.196 Q 192.629 28.563 192.176 28.11 L 192.176 28.11 L 192.176 28.11 Q 191.724 27.657 191.112 27.414 L 191.112 27.414 L 191.112 27.414 Q 190.501 27.172 189.792 27.172 L 189.792 27.172 L 182.925 27.172 L 182.925 40 L 179.001 40 L 179.001 25.125 L 179.001 25.125 Q 179.001 24.703 179.152 24.336 L 179.152 24.336 L 179.152 24.336 Q 179.303 23.969 179.575 23.696 L 179.575 23.696 L 179.575 23.696 Q 179.846 23.422 180.208 23.266 L 180.208 23.266 L 180.208 23.266 Q 180.571 23.11 180.978 23.11 L 180.978 23.11 L 189.822 23.11 L 189.822 23.11 Q 190.562 23.11 191.384 23.282 L 191.384 23.282 L 191.384 23.282 Q 192.207 23.453 193.014 23.836 L 193.014 23.836 L 193.014 23.836 Q 193.821 24.219 194.553 24.805 L 194.553 24.805 L 194.553 24.805 Q 195.285 25.391 195.851 26.227 L 195.851 26.227 L 195.851 26.227 Q 196.417 27.063 196.749 28.156 L 196.749 28.156 L 196.749 28.156 Q 197.081 29.25 197.081 30.625 L 197.081 30.625 Z  M 216.324 35.938 L 216.324 40 L 205.684 40 L 205.684 40 Q 204.869 40 203.903 39.703 L 203.903 39.703 L 203.903 39.703 Q 202.937 39.406 202.115 38.727 L 202.115 38.727 L 202.115 38.727 Q 201.292 38.047 200.741 36.961 L 200.741 36.961 L 200.741 36.961 Q 200.19 35.875 200.19 34.297 L 200.19 34.297 L 200.19 28.797 L 200.19 28.797 Q 200.19 28.219 200.319 27.578 L 200.319 27.578 L 200.319 27.578 Q 200.447 26.938 200.719 26.305 L 200.719 26.305 L 200.719 26.305 Q 200.99 25.672 201.42 25.094 L 201.42 25.094 L 201.42 25.094 Q 201.85 24.516 202.462 24.078 L 202.462 24.078 L 202.462 24.078 Q 203.073 23.641 203.873 23.375 L 203.873 23.375 L 203.873 23.375 Q 204.673 23.11 205.684 23.11 L 205.684 23.11 L 216.324 23.11 L 216.324 27.172 L 205.684 27.172 L 205.684 27.172 Q 204.914 27.172 204.514 27.578 L 204.514 27.578 L 204.514 27.578 Q 204.114 27.985 204.114 28.828 L 204.114 28.828 L 204.114 34.297 L 204.114 34.297 Q 204.114 35.094 204.522 35.516 L 204.522 35.516 L 204.522 35.516 Q 204.929 35.938 205.714 35.938 L 205.714 35.938 L 216.324 35.938 Z  M 237 28.703 L 237 28.703 L 237 28.703 Q 237 29.547 236.713 30.524 L 236.713 30.524 L 236.713 30.524 Q 236.427 31.5 235.785 32.336 L 235.785 32.336 L 235.785 32.336 Q 235.144 33.172 234.11 33.735 L 234.11 33.735 L 234.11 33.735 Q 233.076 34.297 231.597 34.297 L 231.597 34.297 L 224.519 34.297 L 224.519 30.438 L 231.597 30.438 L 231.597 30.438 Q 232.397 30.438 232.835 29.93 L 232.835 29.93 L 232.835 29.93 Q 233.272 29.422 233.272 28.672 L 233.272 28.672 L 233.272 28.672 Q 233.272 27.875 232.782 27.422 L 232.782 27.422 L 232.782 27.422 Q 232.291 26.969 231.597 26.969 L 231.597 26.969 L 224.519 26.969 L 224.519 26.969 Q 223.719 26.969 223.281 27.477 L 223.281 27.477 L 223.281 27.477 Q 222.844 27.985 222.844 28.735 L 222.844 28.735 L 222.844 34.406 L 222.844 34.406 Q 222.844 35.219 223.334 35.672 L 223.334 35.672 L 223.334 35.672 Q 223.825 36.125 224.549 36.125 L 224.549 36.125 L 231.597 36.125 L 231.597 40 L 224.519 40 L 224.519 40 Q 223.704 40 222.761 39.703 L 222.761 39.703 L 222.761 39.703 Q 221.817 39.406 221.01 38.742 L 221.01 38.742 L 221.01 38.742 Q 220.202 38.078 219.659 37.008 L 219.659 37.008 L 219.659 37.008 Q 219.116 35.938 219.116 34.406 L 219.116 34.406 L 219.116 28.703 L 219.116 28.703 Q 219.116 27.86 219.403 26.883 L 219.403 26.883 L 219.403 26.883 Q 219.689 25.907 220.331 25.071 L 220.331 25.071 L 220.331 25.071 Q 220.972 24.235 222.006 23.672 L 222.006 23.672 L 222.006 23.672 Q 223.04 23.11 224.519 23.11 L 224.519 23.11 L 231.597 23.11 L 231.597 23.11 Q 232.412 23.11 233.355 23.407 L 233.355 23.407 L 233.355 23.407 Q 234.299 23.703 235.106 24.368 L 235.106 24.368 L 235.106 24.368 Q 235.913 25.032 236.457 26.102 L 236.457 26.102 L 236.457 26.102 Q 237 27.172 237 28.703 Z " fill="rgb(255,0,0)"/></g></svg>